<mxfile host="app.diagrams.net" modified="2024-04-02T06:34:49.221Z" agent="Mozilla/5.0 (Windows NT 10.0; Win64; x64) AppleWebKit/537.36 (KHTML, like Gecko) Chrome/123.0.0.0 Safari/537.36" version="24.2.1" etag="WhylqHm8p52EtCHJiafk" type="device">
  <diagram id="FAs2d5RDJfK_vo7XIxts" name="Page-1">
    <mxGraphModel dx="1509" dy="813" grid="1" gridSize="10" guides="1" tooltips="1" connect="1" arrows="1" fold="1" page="1" pageScale="1" pageWidth="850" pageHeight="1100" math="0" shadow="0">
      <root>
        <mxCell id="0" />
        <mxCell id="1" parent="0" />
        <mxCell id="pDfaHkqZbsd3ZtoQzrf_-1" value="user" style="swimlane;whiteSpace=wrap;html=1;" vertex="1" parent="1">
          <mxGeometry x="125" y="50" width="200" height="650" as="geometry" />
        </mxCell>
        <mxCell id="pDfaHkqZbsd3ZtoQzrf_-20" value="" style="edgeStyle=orthogonalEdgeStyle;rounded=0;orthogonalLoop=1;jettySize=auto;html=1;entryX=0.5;entryY=0;entryDx=0;entryDy=0;" edge="1" parent="pDfaHkqZbsd3ZtoQzrf_-1" source="pDfaHkqZbsd3ZtoQzrf_-4" target="pDfaHkqZbsd3ZtoQzrf_-5">
          <mxGeometry relative="1" as="geometry" />
        </mxCell>
        <mxCell id="pDfaHkqZbsd3ZtoQzrf_-4" value="mulai" style="ellipse;whiteSpace=wrap;html=1;" vertex="1" parent="pDfaHkqZbsd3ZtoQzrf_-1">
          <mxGeometry x="50" y="50" width="100" height="50" as="geometry" />
        </mxCell>
        <mxCell id="pDfaHkqZbsd3ZtoQzrf_-23" value="" style="edgeStyle=orthogonalEdgeStyle;rounded=0;orthogonalLoop=1;jettySize=auto;html=1;" edge="1" parent="pDfaHkqZbsd3ZtoQzrf_-1" source="pDfaHkqZbsd3ZtoQzrf_-5" target="pDfaHkqZbsd3ZtoQzrf_-22">
          <mxGeometry relative="1" as="geometry" />
        </mxCell>
        <mxCell id="pDfaHkqZbsd3ZtoQzrf_-5" value="tampilan homepage" style="rounded=0;whiteSpace=wrap;html=1;" vertex="1" parent="pDfaHkqZbsd3ZtoQzrf_-1">
          <mxGeometry x="50" y="130" width="100" height="50" as="geometry" />
        </mxCell>
        <mxCell id="pDfaHkqZbsd3ZtoQzrf_-10" value="mengisi data yang diperlukan" style="rounded=1;whiteSpace=wrap;html=1;" vertex="1" parent="pDfaHkqZbsd3ZtoQzrf_-1">
          <mxGeometry x="50" y="295" width="100" height="50" as="geometry" />
        </mxCell>
        <mxCell id="pDfaHkqZbsd3ZtoQzrf_-25" style="edgeStyle=orthogonalEdgeStyle;rounded=0;orthogonalLoop=1;jettySize=auto;html=1;entryX=0;entryY=0.5;entryDx=0;entryDy=0;" edge="1" parent="pDfaHkqZbsd3ZtoQzrf_-1" source="pDfaHkqZbsd3ZtoQzrf_-22" target="pDfaHkqZbsd3ZtoQzrf_-5">
          <mxGeometry relative="1" as="geometry">
            <Array as="points">
              <mxPoint x="30" y="230" />
              <mxPoint x="30" y="155" />
            </Array>
          </mxGeometry>
        </mxCell>
        <mxCell id="pDfaHkqZbsd3ZtoQzrf_-22" value="cari layanan" style="rhombus;whiteSpace=wrap;html=1;" vertex="1" parent="pDfaHkqZbsd3ZtoQzrf_-1">
          <mxGeometry x="70" y="200" width="60" height="60" as="geometry" />
        </mxCell>
        <mxCell id="pDfaHkqZbsd3ZtoQzrf_-35" value="melakukan pembayaran" style="rounded=1;whiteSpace=wrap;html=1;" vertex="1" parent="pDfaHkqZbsd3ZtoQzrf_-1">
          <mxGeometry x="50" y="460" width="100" height="50" as="geometry" />
        </mxCell>
        <mxCell id="pDfaHkqZbsd3ZtoQzrf_-2" value="sistem" style="swimlane;whiteSpace=wrap;html=1;" vertex="1" parent="1">
          <mxGeometry x="325" y="50" width="200" height="650" as="geometry" />
        </mxCell>
        <mxCell id="pDfaHkqZbsd3ZtoQzrf_-7" value="belii" style="rhombus;whiteSpace=wrap;html=1;" vertex="1" parent="pDfaHkqZbsd3ZtoQzrf_-2">
          <mxGeometry x="70" y="290" width="60" height="60" as="geometry" />
        </mxCell>
        <mxCell id="pDfaHkqZbsd3ZtoQzrf_-26" value="" style="edgeStyle=orthogonalEdgeStyle;rounded=0;orthogonalLoop=1;jettySize=auto;html=1;" edge="1" parent="pDfaHkqZbsd3ZtoQzrf_-2" source="pDfaHkqZbsd3ZtoQzrf_-16" target="pDfaHkqZbsd3ZtoQzrf_-7">
          <mxGeometry relative="1" as="geometry" />
        </mxCell>
        <mxCell id="pDfaHkqZbsd3ZtoQzrf_-16" value="menampilkan daftar paket" style="rounded=1;whiteSpace=wrap;html=1;" vertex="1" parent="pDfaHkqZbsd3ZtoQzrf_-2">
          <mxGeometry x="50" y="205" width="100" height="50" as="geometry" />
        </mxCell>
        <mxCell id="pDfaHkqZbsd3ZtoQzrf_-17" value="menampilkan invoice" style="rounded=1;whiteSpace=wrap;html=1;" vertex="1" parent="pDfaHkqZbsd3ZtoQzrf_-2">
          <mxGeometry x="45" y="390" width="100" height="50" as="geometry" />
        </mxCell>
        <mxCell id="pDfaHkqZbsd3ZtoQzrf_-3" value="admin" style="swimlane;whiteSpace=wrap;html=1;" vertex="1" parent="1">
          <mxGeometry x="525" y="50" width="200" height="650" as="geometry" />
        </mxCell>
        <mxCell id="pDfaHkqZbsd3ZtoQzrf_-31" value="" style="edgeStyle=orthogonalEdgeStyle;rounded=0;orthogonalLoop=1;jettySize=auto;html=1;entryX=0.5;entryY=0;entryDx=0;entryDy=0;" edge="1" parent="pDfaHkqZbsd3ZtoQzrf_-3" source="pDfaHkqZbsd3ZtoQzrf_-13" target="pDfaHkqZbsd3ZtoQzrf_-14">
          <mxGeometry relative="1" as="geometry">
            <mxPoint x="100" y="460" as="targetPoint" />
          </mxGeometry>
        </mxCell>
        <mxCell id="pDfaHkqZbsd3ZtoQzrf_-13" value="validasi pembayaran" style="rounded=1;whiteSpace=wrap;html=1;" vertex="1" parent="pDfaHkqZbsd3ZtoQzrf_-3">
          <mxGeometry x="50" y="380" width="100" height="50" as="geometry" />
        </mxCell>
        <mxCell id="pDfaHkqZbsd3ZtoQzrf_-32" value="" style="edgeStyle=orthogonalEdgeStyle;rounded=0;orthogonalLoop=1;jettySize=auto;html=1;" edge="1" parent="pDfaHkqZbsd3ZtoQzrf_-3" source="pDfaHkqZbsd3ZtoQzrf_-14" target="pDfaHkqZbsd3ZtoQzrf_-15">
          <mxGeometry relative="1" as="geometry" />
        </mxCell>
        <mxCell id="pDfaHkqZbsd3ZtoQzrf_-14" value="cetak laporan" style="rounded=1;whiteSpace=wrap;html=1;" vertex="1" parent="pDfaHkqZbsd3ZtoQzrf_-3">
          <mxGeometry x="50" y="470" width="100" height="50" as="geometry" />
        </mxCell>
        <mxCell id="pDfaHkqZbsd3ZtoQzrf_-15" value="selesai" style="ellipse;whiteSpace=wrap;html=1;" vertex="1" parent="pDfaHkqZbsd3ZtoQzrf_-3">
          <mxGeometry x="50" y="550" width="100" height="50" as="geometry" />
        </mxCell>
        <mxCell id="pDfaHkqZbsd3ZtoQzrf_-42" style="edgeStyle=orthogonalEdgeStyle;rounded=0;orthogonalLoop=1;jettySize=auto;html=1;" edge="1" parent="pDfaHkqZbsd3ZtoQzrf_-3" source="pDfaHkqZbsd3ZtoQzrf_-41" target="pDfaHkqZbsd3ZtoQzrf_-13">
          <mxGeometry relative="1" as="geometry" />
        </mxCell>
        <mxCell id="pDfaHkqZbsd3ZtoQzrf_-41" value="dashboard admin" style="rounded=0;whiteSpace=wrap;html=1;" vertex="1" parent="pDfaHkqZbsd3ZtoQzrf_-3">
          <mxGeometry x="50" y="50" width="100" height="50" as="geometry" />
        </mxCell>
        <mxCell id="pDfaHkqZbsd3ZtoQzrf_-24" style="edgeStyle=orthogonalEdgeStyle;rounded=0;orthogonalLoop=1;jettySize=auto;html=1;entryX=0;entryY=0.5;entryDx=0;entryDy=0;" edge="1" parent="1" source="pDfaHkqZbsd3ZtoQzrf_-22" target="pDfaHkqZbsd3ZtoQzrf_-16">
          <mxGeometry relative="1" as="geometry" />
        </mxCell>
        <mxCell id="pDfaHkqZbsd3ZtoQzrf_-27" style="edgeStyle=orthogonalEdgeStyle;rounded=0;orthogonalLoop=1;jettySize=auto;html=1;" edge="1" parent="1" source="pDfaHkqZbsd3ZtoQzrf_-7" target="pDfaHkqZbsd3ZtoQzrf_-10">
          <mxGeometry relative="1" as="geometry" />
        </mxCell>
        <mxCell id="pDfaHkqZbsd3ZtoQzrf_-38" style="edgeStyle=orthogonalEdgeStyle;rounded=0;orthogonalLoop=1;jettySize=auto;html=1;entryX=0;entryY=0.5;entryDx=0;entryDy=0;" edge="1" parent="1" source="pDfaHkqZbsd3ZtoQzrf_-10" target="pDfaHkqZbsd3ZtoQzrf_-17">
          <mxGeometry relative="1" as="geometry">
            <Array as="points">
              <mxPoint x="225" y="465" />
            </Array>
          </mxGeometry>
        </mxCell>
        <mxCell id="pDfaHkqZbsd3ZtoQzrf_-39" style="edgeStyle=orthogonalEdgeStyle;rounded=0;orthogonalLoop=1;jettySize=auto;html=1;entryX=1;entryY=0.5;entryDx=0;entryDy=0;" edge="1" parent="1" source="pDfaHkqZbsd3ZtoQzrf_-17" target="pDfaHkqZbsd3ZtoQzrf_-35">
          <mxGeometry relative="1" as="geometry">
            <Array as="points">
              <mxPoint x="420" y="535" />
            </Array>
          </mxGeometry>
        </mxCell>
        <mxCell id="pDfaHkqZbsd3ZtoQzrf_-40" style="edgeStyle=orthogonalEdgeStyle;rounded=0;orthogonalLoop=1;jettySize=auto;html=1;entryX=0;entryY=0.5;entryDx=0;entryDy=0;" edge="1" parent="1" source="pDfaHkqZbsd3ZtoQzrf_-35" target="pDfaHkqZbsd3ZtoQzrf_-13">
          <mxGeometry relative="1" as="geometry">
            <Array as="points">
              <mxPoint x="225" y="620" />
              <mxPoint x="490" y="620" />
              <mxPoint x="490" y="455" />
            </Array>
          </mxGeometry>
        </mxCell>
      </root>
    </mxGraphModel>
  </diagram>
</mxfile>
